<svg xmlns:xlink="http://www.w3.org/1999/xlink" viewBox="0 0 144 44" fill="none" xmlns="http://www.w3.org/2000/svg" class="h-11 sm:h-9" width="144"  height="44" ><path fill-rule="evenodd" clip-rule="evenodd" d="M0 29.334 25.425 44 50.85 29.334 25.425 14.666 0 29.334Z" fill="#B1BCFD"></path><path fill-rule="evenodd" clip-rule="evenodd" d="M0 24.444 25.425 39.11 50.85 24.444 25.425 9.776 0 24.444Z" fill="#6076FA"></path><path fill-rule="evenodd" clip-rule="evenodd" d="M8.475 14.666H0v4.889L25.425 34.22 50.85 19.555h.017v-4.89h-8.494l-16.95-9.778-16.95 9.779Z" fill="#1B37F2"></path><path fill-rule="evenodd" clip-rule="evenodd" d="M25.425 0 0 14.666l25.425 14.667L50.85 14.666 25.425 0Z" fill="url(&quot;#logo_inline_svg__a&quot;)"></path><path fill-rule="evenodd" clip-rule="evenodd" d="m22.6 11.407 3.466 2-6.291-.371-2.826 1.63 8.476 4.889 2.825-1.63-3.596-2.075 6.42.446 2.826-1.63-8.475-4.889-2.825 1.63Z" fill="url(&quot;#logo_inline_svg__b&quot;)"></path><path fill-rule="evenodd" clip-rule="evenodd" d="M60.825 29.166a.477.477 0 0 1-.173-.366V15.2c0-.154.057-.279.173-.376a.6.6 0 0 1 .402-.146h2.433c.383 0 .644.133.78.397l5.604 8.035V15.2c0-.154.057-.279.173-.376a.6.6 0 0 1 .401-.146h2.755a.59.59 0 0 1 .413.146c.107.097.16.222.16.376v13.58a.52.52 0 0 1-.16.386.564.564 0 0 1-.413.158h-2.457c-.337 0-.589-.133-.757-.399l-5.604-7.74V28.8c0 .139-.053.261-.16.365a.564.564 0 0 1-.414.158h-2.754a.573.573 0 0 1-.402-.158ZM87.024 23.737l-2.135-5.524-2.135 5.524h4.27Zm-10 5.45a.407.407 0 0 1-.149-.304c0-.083.008-.146.022-.188l5.397-13.432a.759.759 0 0 1 .299-.418c.153-.112.352-.169.597-.169h3.398c.244 0 .444.057.597.169.153.112.251.25.299.418l5.373 13.432.046.188c0 .112-.05.213-.15.304a.52.52 0 0 1-.356.136h-2.823c-.369 0-.612-.146-.736-.44l-.896-2.133h-6.13l-.872 2.133c-.124.294-.376.44-.757.44h-2.826a.487.487 0 0 1-.333-.136ZM98.472 29.166a.481.481 0 0 1-.173-.366v-4.498l-5.327-8.954a1.112 1.112 0 0 1-.07-.23c0-.113.05-.214.15-.305a.51.51 0 0 1 .356-.135h2.87c.306 0 .575.146.804.44l3.282 5.397 3.308-5.398a.892.892 0 0 1 .805-.44h2.868c.139 0 .253.046.346.136.09.091.138.192.138.304 0 .07-.016.146-.048.23l-5.326 8.955V28.8a.473.473 0 0 1-.172.377.626.626 0 0 1-.425.147h-2.985a.573.573 0 0 1-.401-.158ZM111.251 29.166a.48.48 0 0 1-.173-.366V15.2a.47.47 0 0 1 .173-.376.598.598 0 0 1 .403-.146h2.479c.367 0 .635.152.803.46l4.041 6.591 4.043-6.59c.167-.309.436-.461.802-.461h2.457c.168 0 .311.048.425.146a.47.47 0 0 1 .173.376v13.6a.47.47 0 0 1-.173.377.628.628 0 0 1-.425.147h-2.732a.624.624 0 0 1-.424-.147.47.47 0 0 1-.173-.377v-7.846l-2.571 4.373c-.2.321-.468.482-.805.482h-1.193a.833.833 0 0 1-.482-.126 1.083 1.083 0 0 1-.322-.356l-2.595-4.373V28.8c0 .14-.054.262-.16.366a.568.568 0 0 1-.414.158h-2.754a.572.572 0 0 1-.403-.158ZM133.32 28.945c-1.04-.39-1.825-.902-2.353-1.537-.529-.634-.806-1.329-.838-2.082 0-.112.049-.213.149-.303.1-.09.218-.136.357-.136h2.892a.92.92 0 0 1 .448.094c.115.062.233.157.357.282.198.363.519.663.963.9.444.237 1.034.356 1.769.356.872 0 1.538-.125 1.997-.377.46-.251.689-.593.689-1.025a.931.931 0 0 0-.356-.753c-.237-.196-.608-.37-1.113-.524-.506-.154-1.255-.327-2.25-.522-1.839-.349-3.212-.862-4.123-1.539-.911-.676-1.365-1.642-1.365-2.898 0-.85.259-1.61.779-2.28.522-.669 1.263-1.193 2.229-1.57.963-.376 2.089-.564 3.375-.564 1.331 0 2.487.21 3.467.628.98.419 1.726.945 2.239 1.58.512.635.784 1.259.814 1.872 0 .125-.045.23-.137.313a.49.49 0 0 1-.345.127h-3.03c-.184 0-.333-.028-.448-.084a.865.865 0 0 1-.311-.272c-.09-.32-.339-.593-.745-.817-.407-.222-.908-.334-1.504-.334-.689 0-1.217.112-1.585.334a1.083 1.083 0 0 0-.551.985c0 .292.103.536.311.731.206.196.543.374 1.009.533.468.162 1.137.325 2.01.492 1.424.239 2.56.535 3.409.89.85.355 1.474.816 1.872 1.38.398.565.597 1.273.597 2.125 0 .934-.295 1.748-.884 2.437-.59.69-1.409 1.221-2.458 1.59-1.048.37-2.246.554-3.592.554-1.456 0-2.703-.195-3.744-.586Z" fill="#131820"></path><defs><linearGradient id="logo_inline_svg__a" x1="0" y1="0" x2="0" y2="29.333" gradientUnits="userSpaceOnUse"><stop stop-color="#9BA7FA"></stop><stop offset="1" stop-color="#5B6FF6"></stop></linearGradient><linearGradient id="logo_inline_svg__b" x1="16.949" y1="9.777" x2="16.949" y2="19.555" gradientUnits="userSpaceOnUse"><stop stop-color="#3B53F4"></stop><stop offset="1" stop-color="#1B37F2"></stop></linearGradient><linearGradient id="logo_inline_svg__a" x1="0" y1="0" x2="0" y2="29.333" gradientUnits="userSpaceOnUse"><stop stop-color="#9BA7FA"></stop><stop offset="1" stop-color="#5B6FF6"></stop></linearGradient><linearGradient id="logo_inline_svg__b" x1="16.949" y1="9.777" x2="16.949" y2="19.555" gradientUnits="userSpaceOnUse"><stop stop-color="#3B53F4"></stop><stop offset="1" stop-color="#1B37F2"></stop></linearGradient></defs></svg>